<?xml version="1.0" encoding="UTF-8"?>
<svg id="Calque_1" data-name="Calque 1" xmlns="http://www.w3.org/2000/svg" viewBox="0 0 841.89 595.28">
  <defs>
    <style>
      .cls-1 {
        fill: #3b4f43;
        stroke: #3b4f43;
        stroke-miterlimit: 10;
        stroke-width: 3.56px;
      }

      .cls-2 {
        fill: #aabbde;
      }
    </style>
  </defs>
  <g>
    <path class="cls-2" d="m672.04,124.14c53,2.23,35.21,90.2,12.73,90.82-22.48.62-59.86-92.8-12.73-90.82Z"/>
    <path class="cls-2" d="m778.16,178.77c31.74,34.27-60.74,62.85-78.47,53.74-17.73-9.11,46.73-88.01,78.47-53.74Z"/>
    <path class="cls-2" d="m782.26,266.6c-5.5,46.92-79.12-7.59-81.23-18.07-2.11-10.47,86.73-28.85,81.23,18.07Z"/>
    <path class="cls-2" d="m697.57,261.16c20.83,7.93,36.36,81.35,2.33,86.45-34.03,5.1-23.16-94.38-2.33-86.45Z"/>
    <path class="cls-2" d="m675.76,248.51c6.48,12.7-45.11,100.31-73.9,79.89-36.52-25.9,65.47-96.42,73.9-79.89Z"/>
    <path class="cls-2" d="m575.86,197.57c8.93-34.41,102.6,21.39,98.32,36.46-4.29,15.07-107.25-2.05-98.32-36.46Z"/>
    <path class="cls-1" d="m677.42,235.48s6.39-18.68,27.46-12.08c21.06,6.6,13.35,37.9-10.99,33.18-24.34-4.72-16.46-21.1-16.46-21.1Z"/>
  </g>
  <g>
    <path class="cls-1" d="m77.41,295.54c-3.7,0-6.34-1.18-7.91-3.53-1.57-2.35-2.35-5.32-2.35-8.92v-73.51h8.41v75.02c0,1.57.25,3.03.76,4.37s1.6,2.02,3.28,2.02c2.13,0,3.89-1.2,5.3-3.62,1.4-2.41,2.63-5.55,3.7-9.42,1.07-3.87,1.96-8.33,2.69-13.37.73-5.05,1.49-10.15,2.27-15.31.78-5.49,1.65-10.74,2.61-15.72.95-4.99,2.27-9.4,3.95-13.21,1.68-3.81,3.81-6.84,6.39-9.08,2.58-2.24,5.89-3.36,9.92-3.36,2.24,0,4.32.39,6.22,1.18,1.91.78,3.62,2.04,5.13,3.78,1.51,1.74,2.8,4.01,3.87,6.81,1.07,2.81,1.77,6.28,2.1,10.43l5.05,56.85c0,.9.25,1.79.76,2.69.5.9,1.37,1.35,2.61,1.35,2.13,0,3.92-1.2,5.38-3.62,1.46-2.41,2.69-5.55,3.7-9.42,1.01-3.87,1.91-8.33,2.69-13.37.78-5.05,1.57-10.15,2.36-15.31.78-5.49,1.65-10.74,2.61-15.72.95-4.99,2.24-9.4,3.87-13.21,1.62-3.81,3.73-6.84,6.31-9.08,2.58-2.24,5.89-3.36,9.92-3.36,2.24,0,4.34.39,6.31,1.18,1.96.78,3.7,2.04,5.21,3.78,1.51,1.74,2.8,4.01,3.87,6.81,1.07,2.81,1.77,6.28,2.1,10.43l5.55,63.75h-8.58l-5.55-63.75c-.11-2.13-.45-4.21-1.01-6.22-.56-2.02-1.35-3.79-2.35-5.3-1.01-1.51-2.33-2.75-3.95-3.7-1.63-.95-3.56-1.43-5.8-1.43-3.7,0-6.56,2.02-8.58,6.06s-3.65,9.11-4.88,15.23c-1.23,6.11-2.3,12.7-3.19,19.76-.9,7.06-2.02,13.65-3.37,19.77-1.35,6.11-3.14,11.18-5.38,15.22-2.24,4.04-5.38,6.06-9.42,6.06-3.7,0-6.22-1.29-7.57-3.87-1.35-2.58-2.19-5.72-2.52-9.42l-4.54-52.15c-.23-2.13-.62-4.21-1.18-6.22-.56-2.02-1.35-3.79-2.36-5.3-1.01-1.51-2.33-2.75-3.95-3.7-1.63-.95-3.56-1.43-5.8-1.43-3.7,0-6.56,2.02-8.58,6.06-2.02,4.04-3.65,9.11-4.88,15.23-1.24,6.11-2.27,12.7-3.11,19.76-.84,7.06-1.93,13.65-3.28,19.77-1.35,6.11-3.14,11.18-5.38,15.22-2.24,4.04-5.38,6.06-9.42,6.06Z"/>
    <path class="cls-1" d="m214.67,275.86c0-4.93,1.07-8.94,3.2-12.03,2.13-3.08,4.82-5.58,8.07-7.48,3.25-1.91,6.76-3.39,10.51-4.46,3.76-1.07,7.26-1.99,10.51-2.78,3.25-.78,5.94-1.57,8.07-2.35,2.13-.78,3.2-1.9,3.2-3.36,0-1.57-.9-2.66-2.69-3.28-1.8-.62-4.07-1.06-6.81-1.35-2.75-.28-5.72-.56-8.91-.84-3.2-.28-6.17-.81-8.92-1.6-2.75-.78-5.02-1.96-6.81-3.53-1.8-1.57-2.69-3.87-2.69-6.9,0-3.7,1.12-6.73,3.37-9.08,2.24-2.36,4.96-4.18,8.16-5.47,3.2-1.29,6.59-2.19,10.18-2.69,3.59-.51,6.79-.76,9.59-.76,10.09,0,17.63,2.69,22.62,8.07,4.99,5.38,7.93,12.95,8.83,22.71l4.88,55.17h-8.58l-3.2-37.01c-1.68,3.81-3.93,7.96-6.73,12.45-2.8,4.49-6.06,8.67-9.76,12.53-3.7,3.87-7.71,7.12-12.03,9.76-4.32,2.63-8.77,3.95-13.37,3.95-6.06,0-11.02-1.74-14.89-5.22-3.87-3.47-5.8-8.3-5.8-14.46Zm15.98-50.97c0,2.47.76,4.37,2.27,5.72,1.51,1.35,3.36,2.39,5.55,3.11,2.19.73,4.6,1.29,7.23,1.68,2.63.39,5.05.87,7.23,1.43,2.19.57,4.04,1.32,5.55,2.27,1.51.95,2.27,2.38,2.27,4.29,0,1.79-.9,3.25-2.69,4.38-1.8,1.12-4.07,2.16-6.81,3.11-2.75.96-5.72,1.99-8.91,3.11-3.2,1.12-6.17,2.58-8.92,4.38-2.75,1.79-5.02,4.09-6.81,6.89-1.8,2.81-2.69,6.34-2.69,10.6s1.04,7.9,3.11,10.93c2.07,3.03,5.47,4.54,10.18,4.54s8.77-1.31,12.87-3.95c4.09-2.63,7.88-5.91,11.35-9.84,3.47-3.92,6.53-8.13,9.17-12.61,2.63-4.49,4.74-8.58,6.31-12.28-.34-4.6-.65-9.39-.93-14.38-.28-4.99-1.12-9.59-2.52-13.79-1.4-4.21-3.67-7.68-6.81-10.43-3.14-2.75-7.8-4.12-13.96-4.12-2.35,0-4.85.23-7.49.68-2.64.45-5.02,1.23-7.15,2.35-2.13,1.12-3.9,2.66-5.3,4.62-1.4,1.97-2.1,4.4-2.1,7.32Z"/>
    <path class="cls-1" d="m350.75,213.46c-3.7,0-6.62,2.02-8.75,6.06-2.13,4.04-3.87,9.11-5.22,15.23-1.34,6.11-2.55,12.7-3.62,19.76s-2.35,13.65-3.87,19.77c-1.51,6.11-3.45,11.18-5.8,15.22-2.35,4.04-5.55,6.06-9.59,6.06-3.7,0-6.34-1.18-7.91-3.53-1.57-2.35-2.35-5.32-2.35-8.92v-73.51h8.41v75.02c0,1.57.28,3.03.84,4.37.56,1.35,1.62,2.02,3.2,2.02,2.13,0,3.95-1.2,5.47-3.62,1.51-2.41,2.83-5.58,3.95-9.5,1.12-3.92,2.16-8.38,3.11-13.37.95-4.99,1.88-10.06,2.77-15.22,1.01-5.38,2.04-10.57,3.11-15.56,1.07-4.99,2.44-9.39,4.12-13.2,1.68-3.81,3.84-6.87,6.48-9.17,2.63-2.3,5.97-3.45,10.01-3.45,2.24,0,4.31.39,6.22,1.18,1.91.78,3.64,2.04,5.21,3.78,1.57,1.74,2.86,4.01,3.87,6.81,1.01,2.81,1.68,6.28,2.02,10.43l5.55,63.75h-8.41l-5.55-63.75c-.23-2.13-.62-4.21-1.18-6.22-.56-2.02-1.35-3.79-2.35-5.3-1.01-1.51-2.33-2.75-3.95-3.7-1.63-.95-3.56-1.43-5.8-1.43Z"/>
    <path class="cls-1" d="m538.3,213.46c-3.7,0-6.62,2.02-8.75,6.06-2.13,4.04-3.87,9.11-5.22,15.23-1.34,6.11-2.55,12.7-3.62,19.76-1.07,7.06-2.35,13.65-3.87,19.77-1.51,6.11-3.45,11.18-5.8,15.22-2.35,4.04-5.55,6.06-9.59,6.06-3.7,0-6.34-1.18-7.91-3.53-1.57-2.35-2.35-5.32-2.35-8.92v-73.51h8.41v75.02c0,1.57.28,3.03.84,4.37.56,1.35,1.62,2.02,3.2,2.02,2.13,0,3.95-1.2,5.47-3.62,1.51-2.41,2.83-5.58,3.95-9.5,1.12-3.92,2.16-8.38,3.11-13.37.95-4.99,1.88-10.06,2.77-15.22,1.01-5.38,2.04-10.57,3.11-15.56,1.07-4.99,2.44-9.39,4.12-13.2,1.68-3.81,3.84-6.87,6.48-9.17,2.63-2.3,5.97-3.45,10.01-3.45,2.24,0,4.31.39,6.22,1.18,1.91.78,3.64,2.04,5.21,3.78,1.57,1.74,2.86,4.01,3.87,6.81,1.01,2.81,1.68,6.28,2.02,10.43l5.55,63.75h-8.41l-5.55-63.75c-.23-2.13-.62-4.21-1.18-6.22-.56-2.02-1.35-3.79-2.35-5.3-1.01-1.51-2.33-2.75-3.95-3.7-1.63-.95-3.56-1.43-5.8-1.43Z"/>
    <path class="cls-1" d="m203.55,447.82l-9.43-.19v-139.54h9.43v62.81c4.15-5.7,9.3-10.13,15.46-13.29,6.16-3.16,12.82-4.74,19.98-4.74,6.79,0,12.94,1.33,18.48,3.99,5.53,2.67,10.24,6.23,14.14,10.69,3.89,4.46,6.91,9.6,9.05,15.42,2.14,5.82,3.21,11.89,3.21,18.21s-1.07,12.43-3.21,18.3c-2.14,5.89-5.15,11.06-9.05,15.52-3.9,4.46-8.61,8.02-14.14,10.68-5.53,2.67-11.69,4-18.48,4-7.16,0-13.83-1.58-19.98-4.74-6.16-3.16-11.31-7.59-15.46-13.29v16.17Zm.38-53.88c0,6.19.66,12.45,1.98,18.77,1.32,6.32,3.45,12.05,6.41,17.19,2.95,5.14,6.79,9.32,11.5,12.54,4.71,3.23,10.46,4.83,17.25,4.83,5.66,0,10.56-1.05,14.71-3.16,4.15-2.11,7.57-4.95,10.27-8.55,2.7-3.59,4.71-7.71,6.03-12.35,1.32-4.65,1.98-9.51,1.98-14.59,0-5.45-.69-11.3-2.07-17.56-1.39-6.25-3.55-12.05-6.51-17.37-2.95-5.33-6.79-9.73-11.5-13.2-4.72-3.47-10.4-5.2-17.06-5.2-5.66,0-10.56,1.05-14.7,3.16-4.15,2.11-7.57,4.95-10.28,8.54-2.7,3.59-4.71,7.71-6.03,12.36-1.32,4.64-1.98,9.51-1.98,14.59Z"/>
    <path class="cls-1" d="m378.88,379.44c0,4.83-1.57,8.67-4.71,11.52-3.14,2.85-7.04,5.14-11.69,6.88-4.65,1.73-9.71,3.13-15.18,4.18-5.47,1.05-10.53,2.26-15.18,3.62-4.65,1.37-8.55,3.04-11.69,5.02-3.15,1.99-4.72,4.83-4.72,8.55s1.13,6.94,3.4,10.04c2.26,3.09,5.06,5.76,8.39,7.99,3.33,2.23,6.94,4,10.84,5.3,3.89,1.3,7.48,1.95,10.74,1.95,6.79,0,12.69-1.46,17.72-4.37,5.02-2.91,9.43-7.15,13.2-12.73l1.7,1.3c-3.65,6.32-8.48,11.4-14.52,15.24-6.03,3.84-12.76,5.76-20.17,5.76-6.79,0-13.04-1.3-18.76-3.9-5.72-2.6-10.72-6.13-14.99-10.6-4.28-4.46-7.6-9.63-9.99-15.51-2.39-5.88-3.58-12.04-3.58-18.49,0-6.81,1.13-13.16,3.39-19.04,2.26-5.88,5.47-10.99,9.61-15.33,4.15-4.33,9.11-7.74,14.89-10.22,5.78-2.47,12.26-3.71,19.42-3.71,4.02,0,7.95.55,11.78,1.67,3.83,1.11,7.23,2.78,10.18,5.02,2.95,2.23,5.34,5.02,7.16,8.36,1.82,3.34,2.73,7.18,2.73,11.52Zm-65.98,36.98c.88-3.22,2.79-5.82,5.75-7.8s6.44-3.68,10.46-5.11c4.02-1.42,8.26-2.75,12.73-3.99,4.46-1.24,8.58-2.73,12.35-4.46s6.88-3.84,9.33-6.32c2.45-2.47,3.67-5.7,3.67-9.66,0-7.56-2.23-13.29-6.69-17.19-4.46-3.9-10.4-5.86-17.81-5.86-5.53,0-10.37,1.18-14.52,3.53-4.15,2.35-7.57,5.42-10.28,9.2-2.7,3.78-4.75,8.08-6.13,12.91-1.38,4.83-2.07,9.66-2.07,14.49,0,6.81,1.07,13.56,3.21,20.25Z"/>
    <path class="cls-1" d="m453.35,352.87c3.39,0,6.63.96,9.71,2.88,3.08,1.92,5.5,5.3,7.26,10.13.75,1.86.53,3.62-.66,5.3-1.2,1.67-2.8,2.51-4.81,2.51h-.19c-1.38,0-2.58-.4-3.58-1.21-1.01-.81-1.7-1.82-2.07-3.06-1.13-3.97-2.8-6.72-4.99-8.27-2.2-1.55-4.18-2.32-5.94-2.32-2.39,0-4.68.44-6.88,1.3-2.2.87-4.27,2.64-6.22,5.3-1.95,2.67-3.74,6.48-5.37,11.43-1.63,4.95-3.14,11.46-4.53,19.51-1.26,7.43-2.14,14.4-2.64,20.9-.5,6.5-1.19,12.14-2.07,16.91s-2.2,8.54-3.96,11.33c-1.76,2.79-4.46,4.18-8.11,4.18-4.15,0-6.82-1.3-8.01-3.9-1.2-2.6-1.79-5.88-1.79-9.85v-81.2h9.43v83.06c0,1.73.16,3.28.47,4.64.31,1.37,1.29,2.05,2.92,2.05s2.98-1.36,4.05-4.09c1.07-2.73,1.98-6.38,2.73-10.96.75-4.58,1.51-9.78,2.26-15.61.75-5.82,1.57-11.89,2.45-18.21,1.25-8.54,2.86-15.58,4.81-21.09,1.95-5.51,4.24-9.87,6.88-13.1,2.64-3.22,5.56-5.45,8.77-6.69,3.21-1.23,6.57-1.85,10.09-1.85Z"/>
    <path class="cls-1" d="m517.63,449.68c-8.42,0-14.27-2.85-17.53-8.55-3.27-5.7-4.9-14.24-4.9-25.64v-58.34h-14.14v-2.42c4.02,0,7.29-.65,9.8-1.95,2.51-1.3,4.52-3.03,6.03-5.2s2.64-4.71,3.39-7.62c.75-2.91,1.44-5.92,2.07-9.01h2.26v23.78h27.52v2.42h-27.52v59.83c0,8.55,1.07,15.36,3.2,20.44,2.14,5.08,6.22,7.62,12.26,7.62,2.64,0,4.9-.46,6.79-1.39,1.88-.93,3.55-2.17,5-3.71,1.44-1.55,2.76-3.41,3.96-5.57,1.19-2.17,2.36-4.49,3.49-6.97l1.7,1.3c-1.13,2.73-2.42,5.36-3.87,7.9-1.45,2.54-3.11,4.8-5,6.78-1.88,1.98-4.02,3.53-6.41,4.64-2.39,1.11-5.09,1.67-8.11,1.67Z"/>
    <path class="cls-1" d="m565.14,437.6c0,1.73.31,3.34.94,4.83.63,1.49,1.82,2.23,3.58,2.23,2.39,0,4.43-1.33,6.13-4,1.7-2.66,3.17-6.16,4.43-10.5,1.25-4.33,2.42-9.26,3.49-14.77,1.07-5.51,2.1-11.11,3.11-16.82,1-5.94,2.1-11.67,3.3-17.19,1.19-5.51,2.76-10.37,4.72-14.58,1.95-4.21,4.4-7.59,7.35-10.13,2.95-2.54,6.69-3.81,11.22-3.81,2.51,0,4.84.43,6.98,1.3,2.14.87,4.05,2.26,5.75,4.18,1.7,1.93,3.14,4.43,4.34,7.53,1.19,3.1,1.98,6.94,2.36,11.52l6.22,70.42h-9.43l-6.22-70.42c-.25-2.35-.69-4.65-1.32-6.88-.63-2.23-1.51-4.18-2.64-5.85-1.13-1.67-2.61-3.03-4.43-4.09-1.82-1.05-3.99-1.58-6.5-1.58-4.15,0-7.42,2.23-9.8,6.69-2.39,4.46-4.34,10.07-5.85,16.82-1.51,6.75-2.86,14.03-4.05,21.83-1.19,7.8-2.64,15.08-4.33,21.84-1.7,6.75-3.87,12.35-6.51,16.82-2.64,4.46-6.22,6.69-10.75,6.69-4.15,0-7.1-1.3-8.86-3.9-1.76-2.6-2.64-5.88-2.64-9.85v-127.84h9.43v129.51Z"/>
    <g>
      <path class="cls-1" d="m398.45,295.54c-1.13-4.83-1.73-9.55-1.73-14.17,0-4.89.7-9.58,2.1-14.07,1.4-4.49,3.49-8.46,6.25-11.91,2.77-3.45,6.17-6.19,10.22-8.24,4.05-2.04,8.72-3.07,14.01-3.07,6.09,0,11.41,1.44,15.93,4.33,4.53,2.89,8.3,6.61,11.31,11.18,3.01,4.57,5.25,9.64,6.73,15.21,1.48,5.57,2.22,11,2.22,16.3,0,1.5-.09,2.97-.22,4.43h6.18c.58-3.01.9-6.09.9-9.24,0-5.93-1-11.58-3.01-16.96-2.01-5.37-4.81-10.1-8.42-14.19-3.61-4.09-7.94-7.34-12.99-9.74-5.05-2.4-10.66-3.61-16.84-3.61s-11.67,1.2-16.72,3.61c-5.05,2.41-9.38,5.65-12.99,9.74-3.61,4.09-6.42,8.82-8.42,14.19-2,5.37-3.01,11.03-3.01,16.96,0,3.15.31,6.22.89,9.24h7.57Z"/>
      <path class="cls-1" d="m459.95,210.78c-.85,1.44-1.76,2.84-2.8,4.13-2.77,3.45-6.17,6.19-10.22,8.24-4.05,2.05-8.68,3.07-13.89,3.07-6.09,0-11.42-1.44-16-4.33-4.54-2.87-8.31-6.58-11.31-11.11h-7.66c1.03,1.52,2.12,3,3.34,4.37,3.61,4.09,7.94,7.34,12.99,9.74,5.05,2.41,10.62,3.61,16.72,3.61s11.79-1.2,16.84-3.61c5.05-2.4,9.38-5.65,12.99-9.74,1.21-1.38,2.3-2.85,3.34-4.37h-4.33Z"/>
    </g>
    <path class="cls-1" d="m663.19,449.68c-1.26-5.33-1.93-10.55-1.93-15.65,0-5.4.79-10.58,2.36-15.54,1.57-4.96,3.91-9.34,7.01-13.15,3.1-3.81,6.92-6.84,11.46-9.1,4.54-2.26,9.77-3.39,15.7-3.39,6.83,0,12.78,1.59,17.86,4.78,5.07,3.19,9.3,7.31,12.67,12.36,3.37,5.05,5.88,10.65,7.55,16.81,1.66,6.16,2.49,12.16,2.49,18,0,1.65-.1,3.28-.25,4.89h6.93c.65-3.33,1-6.72,1-10.2,0-6.55-1.12-12.8-3.37-18.73-2.25-5.93-5.39-11.16-9.44-15.68-4.04-4.52-8.9-8.1-14.56-10.76-5.66-2.66-11.95-3.99-18.87-3.99s-13.08,1.33-18.73,3.99c-5.66,2.66-10.51,6.24-14.56,10.76-4.04,4.52-7.19,9.74-9.44,15.68-2.25,5.94-3.37,12.18-3.37,18.73,0,3.48.35,6.88,1,10.2h8.48Z"/>
    <path class="cls-1" d="m732.12,356.05c-.95,1.59-1.97,3.14-3.14,4.57-3.1,3.81-6.92,6.84-11.46,9.1-4.54,2.26-9.73,3.39-15.57,3.39-6.83,0-12.8-1.59-17.93-4.78-5.09-3.17-9.32-7.26-12.68-12.27h-8.59c1.16,1.68,2.38,3.31,3.74,4.83,4.04,4.52,8.9,8.1,14.56,10.76,5.66,2.66,11.9,3.99,18.73,3.99s13.21-1.33,18.87-3.99c5.66-2.66,10.51-6.24,14.56-10.76,1.36-1.52,2.58-3.15,3.74-4.83h-4.85Z"/>
  </g>
  <g>
    <path class="cls-2" d="m71.1,324.46c-.75,0-1.45-.11-2.12-.32s-1.19-.48-1.57-.8l.55-.96c.37.28.84.51,1.41.71.57.2,1.17.3,1.81.3.86,0,1.48-.13,1.86-.4.38-.27.57-.63.57-1.08,0-.33-.11-.59-.32-.78-.21-.19-.49-.33-.83-.43-.34-.1-.73-.18-1.15-.25-.42-.07-.84-.15-1.26-.24s-.8-.23-1.14-.4c-.34-.18-.62-.42-.83-.73s-.32-.72-.32-1.24.14-.94.41-1.33c.27-.39.68-.7,1.21-.92.53-.22,1.18-.33,1.95-.33.58,0,1.17.08,1.75.23s1.07.36,1.44.61l-.53.98c-.4-.28-.83-.47-1.29-.59s-.92-.18-1.38-.18c-.81,0-1.41.14-1.8.42-.38.28-.58.64-.58,1.08,0,.34.11.61.32.81s.49.35.84.46c.35.11.73.2,1.15.27s.84.15,1.25.25c.42.1.8.23,1.15.4.35.17.63.4.84.71.21.3.32.7.32,1.19,0,.53-.15.98-.44,1.37-.29.38-.72.68-1.27.9s-1.23.32-2.02.32Z"/>
    <path class="cls-2" d="m75.66,316.36v-1.01h5.59v1.01h-5.59Zm4.27,8.1c-.85,0-1.5-.23-1.96-.69s-.69-1.11-.69-1.95v-8.48h1.22v8.41c0,.53.13.93.4,1.22.27.29.66.43,1.16.43.54,0,.99-.16,1.34-.47l.43.88c-.24.22-.53.38-.87.48s-.69.15-1.04.15Z"/>
    <path class="cls-2" d="m87.78,324.46c-.77,0-1.44-.14-2.01-.43-.57-.29-1.02-.72-1.33-1.29-.32-.57-.47-1.29-.47-2.15v-5.25h1.22v5.11c0,.96.24,1.69.71,2.18.48.49,1.14.73,2,.73.63,0,1.18-.13,1.64-.39.47-.26.82-.63,1.07-1.13.25-.49.37-1.08.37-1.77v-4.73h1.22v9.03h-1.17v-2.48l.19.45c-.29.67-.73,1.18-1.33,1.56-.6.37-1.3.56-2.11.56Z"/>
    <path class="cls-2" d="m99.2,324.46c-.86,0-1.63-.19-2.31-.58-.68-.39-1.22-.93-1.61-1.63-.39-.69-.58-1.49-.58-2.4s.19-1.72.58-2.41c.39-.69.93-1.22,1.61-1.61.68-.38,1.45-.58,2.31-.58.79,0,1.5.18,2.12.53.62.36,1.12.88,1.49,1.56.37.68.56,1.52.56,2.5s-.18,1.81-.55,2.49c-.37.69-.86,1.21-1.49,1.57s-1.34.54-2.14.54Zm.09-1.08c.64,0,1.22-.15,1.73-.44s.91-.71,1.2-1.24c.29-.53.44-1.15.44-1.85s-.15-1.33-.44-1.86-.69-.94-1.2-1.23-1.09-.44-1.73-.44-1.2.15-1.7.44c-.5.29-.91.7-1.2,1.23-.3.53-.45,1.15-.45,1.86s.15,1.32.45,1.85c.3.53.7.95,1.2,1.24.51.29,1.07.44,1.7.44Zm3.41,1v-2.72l.12-1.82-.17-1.82v-6.4h1.22v12.76h-1.17Z"/>
    <path class="cls-2" d="m107.89,313.35c-.25,0-.46-.09-.63-.26s-.26-.38-.26-.62.09-.45.26-.61c.17-.16.38-.25.63-.25s.47.08.64.24c.17.16.26.36.26.6s-.08.46-.25.64c-.17.17-.38.26-.65.26Zm-.62,11.03v-9.03h1.22v9.03h-1.22Z"/>
    <path class="cls-2" d="m115.58,324.46c-.88,0-1.67-.2-2.36-.59-.69-.4-1.23-.94-1.63-1.64s-.6-1.49-.6-2.37.2-1.7.6-2.39c.4-.69.95-1.23,1.63-1.62.69-.39,1.47-.58,2.36-.58s1.69.2,2.38.59c.69.4,1.24.94,1.63,1.62.4.68.59,1.48.59,2.38s-.2,1.69-.59,2.38c-.39.69-.94,1.24-1.64,1.63-.7.39-1.49.59-2.37.59Zm0-1.08c.65,0,1.23-.15,1.74-.44.51-.29.9-.71,1.2-1.24.29-.53.44-1.15.44-1.85s-.15-1.33-.44-1.86c-.29-.53-.69-.94-1.2-1.23-.5-.29-1.08-.44-1.72-.44s-1.21.15-1.72.44c-.5.29-.91.7-1.2,1.23-.3.53-.45,1.15-.45,1.86s.15,1.32.45,1.85c.3.53.7.95,1.19,1.24s1.07.44,1.71.44Z"/>
    <path class="cls-2" d="m130.94,324.46c-.89,0-1.69-.2-2.4-.59-.71-.4-1.26-.94-1.66-1.63s-.6-1.49-.6-2.38.2-1.7.6-2.39c.4-.69.96-1.23,1.66-1.62.7-.39,1.51-.58,2.4-.58.77,0,1.46.15,2.08.45.62.3,1.11.75,1.46,1.34l-.91.62c-.31-.46-.69-.8-1.15-1.01-.46-.22-.96-.33-1.5-.33-.64,0-1.22.15-1.74.44-.52.29-.92.7-1.22,1.23-.3.53-.45,1.15-.45,1.86s.15,1.33.45,1.86c.3.53.7.94,1.22,1.23.52.29,1.09.44,1.74.44.54,0,1.04-.11,1.5-.33.46-.22.84-.55,1.15-1l.91.62c-.36.58-.84,1.03-1.46,1.33s-1.31.46-2.08.46Z"/>
    <path class="cls-2" d="m136.87,324.38v-9.03h1.17v2.46l-.12-.43c.25-.69.68-1.21,1.27-1.57s1.34-.54,2.22-.54v1.19s-.09,0-.14,0c-.05,0-.09,0-.14,0-.95,0-1.7.29-2.24.87-.54.58-.81,1.4-.81,2.47v4.61h-1.22Z"/>
    <path class="cls-2" d="m147.38,324.46c-.94,0-1.77-.2-2.48-.59-.71-.4-1.27-.94-1.67-1.63s-.6-1.49-.6-2.38.19-1.69.58-2.37c.38-.69.91-1.23,1.58-1.63.67-.39,1.42-.59,2.26-.59s1.6.19,2.26.58c.66.38,1.18.92,1.56,1.62.38.7.57,1.49.57,2.4,0,.06,0,.12,0,.18,0,.06,0,.13,0,.2h-7.86v-.91h7.21l-.48.36c0-.65-.14-1.23-.42-1.75s-.66-.91-1.14-1.2c-.48-.29-1.04-.43-1.67-.43s-1.18.14-1.67.43c-.49.29-.88.69-1.15,1.2-.27.52-.41,1.11-.41,1.77v.19c0,.69.15,1.29.46,1.81s.73.93,1.27,1.22c.54.29,1.17.44,1.87.44.55,0,1.06-.1,1.54-.29s.89-.49,1.23-.89l.69.79c-.4.48-.9.85-1.51,1.1s-1.26.38-1.99.38Zm-1.46-10.53l2.36-2.13h1.63l-2.79,2.13h-1.2Z"/>
    <path class="cls-2" d="m156.22,324.46c-.68,0-1.26-.11-1.76-.33-.5-.23-.88-.53-1.14-.93-.26-.4-.4-.85-.4-1.37,0-.47.11-.9.34-1.28.22-.38.59-.69,1.1-.93s1.2-.35,2.06-.35h3.11v.91h-3.08c-.87,0-1.48.16-1.81.47s-.51.69-.51,1.15c0,.52.2.93.6,1.24.4.31.96.47,1.69.47s1.28-.16,1.78-.47.86-.77,1.09-1.37l.28.84c-.23.6-.63,1.07-1.2,1.43-.57.35-1.28.53-2.14.53Zm3.11-.09v-2l-.05-.33v-3.34c0-.77-.22-1.36-.65-1.77-.43-.41-1.07-.62-1.92-.62-.58,0-1.14.1-1.67.29s-.97.45-1.34.77l-.55-.91c.46-.39,1.01-.69,1.65-.9.64-.21,1.32-.32,2.03-.32,1.17,0,2.07.29,2.71.87s.95,1.46.95,2.64v5.61h-1.17Z"/>
    <path class="cls-2" d="m162.42,316.36v-1.01h5.59v1.01h-5.59Zm4.27,8.1c-.85,0-1.5-.23-1.96-.69s-.69-1.11-.69-1.95v-8.48h1.22v8.41c0,.53.13.93.4,1.22.27.29.66.43,1.16.43.54,0,.99-.16,1.34-.47l.43.88c-.24.22-.53.38-.87.48s-.69.15-1.04.15Z"/>
    <path class="cls-2" d="m171.43,313.35c-.25,0-.46-.09-.63-.26s-.26-.38-.26-.62.09-.45.26-.61c.17-.16.38-.25.63-.25s.47.08.64.24c.17.16.26.36.26.6s-.08.46-.25.64c-.17.17-.38.26-.65.26Zm-.62,11.03v-9.03h1.22v9.03h-1.22Z"/>
    <path class="cls-2" d="m174.03,316.36v-1.01h5.59v1.01h-5.59Zm1.62,8.02v-10.17c0-.8.23-1.45.7-1.94.47-.49,1.15-.74,2.03-.74.34,0,.68.05,1,.14.32.09.59.24.81.43l-.41.91c-.17-.15-.37-.26-.6-.33-.23-.08-.48-.11-.74-.11-.52,0-.91.14-1.19.43-.28.29-.41.71-.41,1.27v1.38l.04.57v8.17h-1.22Z"/>
  </g>
</svg>