<?xml version="1.0" encoding="UTF-8"?>
<svg xmlns="http://www.w3.org/2000/svg" xmlns:xlink="http://www.w3.org/1999/xlink" viewBox="0 0 1138 1080">
  <defs>
    <style>
      .cls-1 {
        stroke: #88a092;
        stroke-width: 9.37px;
      }

      .cls-1, .cls-2, .cls-3 {
        stroke-linecap: round;
        stroke-miterlimit: 10;
      }

      .cls-1, .cls-2, .cls-3, .cls-4, .cls-5, .cls-6 {
        fill: none;
      }

      .cls-7 {
        fill: #3b4f43;
      }

      .cls-8 {
        fill: #dae2ef;
      }

      .cls-9 {
        opacity: .39;
      }

      .cls-9, .cls-10 {
        fill: #aabadd;
      }

      .cls-11 {
        fill: #eda49a;
      }

      .cls-2 {
        stroke-width: 22.07px;
      }

      .cls-2, .cls-3 {
        stroke: #3b4f43;
      }

      .cls-3 {
        stroke-width: 14.28px;
      }

      .cls-4 {
        opacity: .44;
      }

      .cls-12 {
        fill: #1b1c1b;
        opacity: .24;
      }

      .cls-13 {
        fill: #bdc5c6;
      }

      .cls-6 {
        clip-path: url(#clippath);
      }

      .cls-14 {
        fill: #c3533c;
      }

      .cls-15 {
        fill: #e08270;
      }

      .cls-16 {
        fill: #88a092;
      }

      .cls-17 {
        fill: #ffe3c3;
      }
    </style>
    <clipPath id="clippath">
      <circle class="cls-5" cx="565.91" cy="698.92" r="128.47"/>
    </clipPath>
  </defs>
  <g id="Calque_7" data-name="Calque 7">
    <path class="cls-9" d="m130.97,376.88S275.98-46.61,753.56,103.01c477.58,149.62,302.75,859.32-249.29,752.4C-47.77,748.47,130.97,376.88,130.97,376.88Z"/>
  </g>
  <g id="Calque_2" data-name="Calque 2">
    <g>
      <path class="cls-2" d="m816.08,236.03s248.26,268.12,17.65,619"/>
      <path class="cls-7" d="m727.26,164.86s-3.31,148.96,126.89,146.75l19.81-11.52s6.67-146.27-146.7-135.23Z"/>
      <path class="cls-7" d="m906.01,386.64s-34.2-121.37,75.03-164.4c0,0,64,118.06-58.48,197.51l-16.55-33.1Z"/>
      <path class="cls-7" d="m755.95,372.32s5.68,71.65,153.37,56.3l-4.09-34.47s-81.12-62.77-149.28-21.83Z"/>
      <path class="cls-7" d="m935.8,543.09s-51.86-79.44,161.09-99.07c0,0,16.55,155.15-157.78,158.89l-3.31-59.82Z"/>
      <path class="cls-7" d="m900.29,722.1s92.92-121.59,214.24-46.89c0,0-68.01,148.11-234.33,87.06l20.08-40.17Z"/>
      <path class="cls-7" d="m776.06,478.95s-18.84,88.59,149.48,117.13l7.57-43.05s-67.5-101.91-157.05-74.09Z"/>
      <path class="cls-7" d="m874.38,734.99s-116.91-14.03-114.84-123.64c0,0,124.74-12.84,149.31,121.24l-34.47,2.4Z"/>
    </g>
    <g>
      <path class="cls-3" d="m166.4,379.2s-113.73,207.29,86.12,391.32"/>
      <path class="cls-7" d="m210.98,320.58s25.47,92.98-56.6,112.04l-14.25-4.12s-27.15-90.77,70.85-107.92Z"/>
      <path class="cls-7" d="m133.61,487.87s2.41-81.56-72.91-91.41c0,0-21.63,84.16,67.72,114.79l5.19-23.38Z"/>
      <path class="cls-7" d="m225.55,455.31s7.69,45.87-87.43,59.42l-2.85-22.28s41.06-52.14,90.28-37.14Z"/>
      <path class="cls-7" d="m139.47,590.75s20.08-58.01-116.68-36.89c0,0,13.98,99.99,123.99,74.96l-7.32-38.07Z"/>
      <path class="cls-7" d="m189.87,697.54s-77.42-61.73-141.85,4.21c0,0,65.95,82.29,160.76,17.85l-18.91-22.06Z"/>
      <path class="cls-7" d="m229.67,525.4s25.74,52.65-75.43,97l-11.51-25.83s26.37-74.57,86.95-71.17Z"/>
      <path class="cls-7" d="m208.16,701.56s71.18-27.17,52.67-95.65c0,0-80.31,11.53-74.68,99.55l22.02-3.91Z"/>
    </g>
  </g>
  <g id="Calque_6" data-name="Calque 6">
    <polygon class="cls-7" points="316.84 492.3 323.58 478.81 362.51 478.81 368.38 490.86 316.84 492.3"/>
  </g>
  <g id="Calque_3" data-name="Calque 3">
    <polygon class="cls-15" points="252.53 519.29 224.88 863.5 839.01 869 822.95 520.53 736.34 520.53 731.59 488.93 674.85 488.93 615.01 422.45 512.49 422.45 457.01 490.86 399.21 490.86 397.28 517.83 379.94 517.83 368.38 490.86 315.39 489.89 312.5 517.83 252.53 517.04 252.53 519.29"/>
  </g>
  <g id="Calque_4" data-name="Calque 4">
    <g>
      <polygon class="cls-14" points="228.62 816.98 227.8 827.18 837.43 834.62 836.61 816.98 228.62 816.98"/>
      <g>
        <polygon class="cls-14" points="826.89 605.99 825.83 582.86 247.01 587.97 245.56 605.99 826.89 605.99"/>
        <polygon class="cls-14" points="245.1 611.77 229.47 806.38 836.12 806.38 827.16 611.77 245.1 611.77"/>
      </g>
    </g>
  </g>
  <g id="Calque_14" data-name="Calque 14">
    <circle class="cls-12" cx="577.93" cy="697.91" r="168.6"/>
  </g>
  <g id="Calque_5" data-name="Calque 5">
    <g>
      <circle class="cls-11" cx="566.25" cy="700.03" r="168.6"/>
      <circle class="cls-14" cx="566.25" cy="700.03" r="147.63"/>
      <circle class="cls-10" cx="566.03" cy="699.77" r="128.47"/>
      <circle class="cls-13" cx="567.37" cy="699.38" r="112.15"/>
      <g class="cls-4">
        <g class="cls-6">
          <rect class="cls-8" x="517.18" y="531.21" width="31.79" height="320.82" transform="translate(392 -170.13) rotate(28.33)"/>
          <rect class="cls-8" x="549.09" y="559.36" width="68.37" height="320.82" transform="translate(411.37 -190.57) rotate(28.33)"/>
        </g>
      </g>
    </g>
  </g>
  <g id="Calque_10" data-name="Calque 10">
    <path class="cls-17" d="m278.41,539.97l134.93-.84c3.07-.02,5.72,2.14,6.32,5.15l4.79,23.95c.8,4-2.29,7.72-6.36,7.66l-145.8-1.84c-4.22-.05-7.24-4.11-6.08-8.17l6.08-21.28c.78-2.74,3.28-4.63,6.12-4.65Z"/>
    <g>
      <polygon class="cls-17" points="527.81 451 552.58 451 552.58 487.31 536.07 487.07 527.81 451"/>
      <polygon class="cls-17" points="557.93 451 557.93 487.31 573.92 487.31 579.57 451 557.93 451"/>
      <polygon class="cls-17" points="582.61 451 596.65 451 605.43 486.55 582.61 486.55 582.61 451"/>
    </g>
  </g>
  <g id="Calque_11" data-name="Calque 11">
    <circle class="cls-7" cx="361" cy="755" r="31"/>
    <circle class="cls-16" cx="361.19" cy="754.91" r="22.91"/>
    <circle class="cls-7" cx="762.71" cy="674.66" r="14.59"/>
    <path class="cls-7" d="m784.22,726.33c-.15-.38-.3-.75-.47-1.11-2.57-5.83-8.08-14.42-19.73-26.33,0,0-22.82,24.22-21.7,32.2h0c-.1.7-.17,1.4-.2,2.12-.55,12.02,8.75,22.22,20.78,22.77s22.22-8.75,22.77-20.78c0,0,1.02-2.7-1.45-8.86Z"/>
  </g>
  <g id="Calque_8" data-name="Calque 8">
    <g>
      <path class="cls-1" d="m309.72,598.83s-119.45,99.13-41.81,259.72"/>
      <path class="cls-16" d="m351.08,573.79s-6.88,62.92-61.59,54.76l-7.71-5.95s5.32-61.97,69.3-48.81Z"/>
      <path class="cls-16" d="m263.48,657.27s21.15-49.22-22.47-73.41c0,0-33.51,46.17,13.66,86.43l8.81-13.02Z"/>
      <path class="cls-16" d="m327.48,659.57s-6.37,29.86-67.72,15.19l3.64-14.29s37.65-21.93,64.08-.9Z"/>
      <path class="cls-16" d="m242.24,721.5s26.25-30.58-62.34-50.67c0,0-15.59,64.42,57.63,75.68l4.72-25.01Z"/>
      <path class="cls-16" d="m247.26,798.87s-32.38-56.37-87.63-31.65c0,0,20.42,66.15,93.85,49.68l-6.23-18.03Z"/>
      <path class="cls-16" d="m313.08,703.36s3.01,38.35-69.46,41.03l-.8-18.55s34.09-39.17,70.26-22.48Z"/>
      <path class="cls-16" d="m257.45,805.73s50.02.58,55.23-45.7c0,0-51.82-12.33-69.62,42.77l14.39,2.93Z"/>
    </g>
  </g>
  <g id="Calque_9" data-name="Calque 9">
    <path class="cls-7" d="m712.57,546.28s7.45-21.77,32-14.08c24.55,7.69,15.56,44.17-12.81,38.68-28.38-5.5-19.19-24.6-19.19-24.6Z"/>
    <g>
      <path class="cls-15" d="m113.92,376.83c26.56,1.12,17.64,45.2,6.38,45.51-11.27.31-29.99-46.5-6.38-45.51Z"/>
      <path class="cls-15" d="m167.1,404.2c15.91,17.17-30.44,31.49-39.32,26.93-8.88-4.56,23.41-44.1,39.32-26.93Z"/>
      <path class="cls-15" d="m169.15,448.21c-2.75,23.51-39.65-3.8-40.7-9.05-1.06-5.25,43.46-14.46,40.7,9.05Z"/>
      <path class="cls-15" d="m126.72,445.49c10.44,3.97,18.22,40.76,1.17,43.32-17.05,2.56-11.6-47.29-1.17-43.32Z"/>
      <path class="cls-15" d="m115.79,439.15c3.25,6.36-22.6,50.26-37.03,40.03-18.3-12.98,32.8-48.31,37.03-40.03Z"/>
      <path class="cls-15" d="m65.73,413.62c4.48-17.24,51.41,10.72,49.27,18.27-2.15,7.55-53.74-1.03-49.27-18.27Z"/>
      <path class="cls-10" d="m116.62,432.62s3.2-9.36,13.76-6.05c10.55,3.31,6.69,18.99-5.51,16.63-12.2-2.36-8.25-10.57-8.25-10.57Z"/>
    </g>
    <g>
      <path class="cls-15" d="m928.86,538.78c30.41,1.28,20.21,51.76,7.3,52.12-12.9.35-34.35-53.25-7.3-52.12Z"/>
      <path class="cls-15" d="m989.76,570.12c18.22,19.67-34.86,36.07-45.03,30.84-10.17-5.23,26.81-50.51,45.03-30.84Z"/>
      <path class="cls-15" d="m992.12,620.53c-3.15,26.93-45.41-4.36-46.62-10.37-1.21-6.01,49.77-16.56,46.62,10.37Z"/>
      <path class="cls-15" d="m943.51,617.41c11.95,4.55,20.87,46.68,1.34,49.61-19.53,2.93-13.29-54.16-1.34-49.61Z"/>
      <path class="cls-15" d="m931,610.15c3.72,7.29-25.89,57.56-42.41,45.85-20.96-14.87,37.57-55.33,42.41-45.85Z"/>
      <path class="cls-15" d="m873.66,580.91c5.13-19.74,58.88,12.27,56.42,20.92-2.46,8.65-61.55-1.18-56.42-20.92Z"/>
      <path class="cls-10" d="m931.95,602.67s3.67-10.72,15.76-6.93c12.09,3.79,7.66,21.75-6.31,19.04-13.97-2.71-9.45-12.11-9.45-12.11Z"/>
    </g>
    <g>
      <path class="cls-14" d="m833.91,250.4c43.26,1.82,28.74,73.62,10.39,74.12-18.35.5-48.86-75.74-10.39-74.12Z"/>
      <path class="cls-14" d="m920.53,294.98c25.91,27.97-49.58,51.3-64.05,43.87-14.47-7.43,38.14-71.84,64.05-43.87Z"/>
      <path class="cls-14" d="m923.88,366.67c-4.49,38.3-64.58-6.2-66.3-14.75-1.72-8.55,70.79-23.55,66.3,14.75Z"/>
      <path class="cls-14" d="m854.76,362.23c17,6.47,29.68,66.4,1.9,70.56-27.78,4.17-18.9-77.03-1.9-70.56Z"/>
      <path class="cls-14" d="m836.95,351.91c5.29,10.36-36.82,81.87-60.31,65.21-29.81-21.14,53.43-78.69,60.31-65.21Z"/>
      <path class="cls-14" d="m755.41,310.33c7.29-28.08,83.75,17.46,80.25,29.76-3.5,12.3-87.54-1.68-80.25-29.76Z"/>
      <path class="cls-15" d="m838.31,341.27s5.22-15.24,22.41-9.86c17.19,5.39,10.9,30.93-8.97,27.08-19.87-3.85-13.44-17.22-13.44-17.22Z"/>
    </g>
  </g>
  <g id="Calque_13" data-name="Calque 13">
    <polygon class="cls-12" points="763 521 824 521 839.32 869.47 780.23 866.79 763 521"/>
  </g>
</svg>