<?xml version="1.0" encoding="UTF-8"?>
<svg id="Calque_15" data-name="Calque 15" xmlns="http://www.w3.org/2000/svg" viewBox="0 0 1138 1080">
  <defs>
    <style>
      .cls-1 {
        fill: #fff;
      }

      .cls-2 {
        fill: #ddbda2;
      }

      .cls-3, .cls-4 {
        fill: #3b4f43;
      }

      .cls-5 {
        fill: #aabadd;
      }

      .cls-6 {
        fill: none;
        stroke-linecap: round;
        stroke-width: 22.07px;
      }

      .cls-6, .cls-4 {
        stroke: #3b4f43;
        stroke-miterlimit: 10;
      }

      .cls-7 {
        fill: #6f859b;
      }

      .cls-8 {
        fill: #403838;
      }

      .cls-4 {
        stroke-width: 3.43px;
      }

      .cls-9 {
        fill: #cad9ef;
      }

      .cls-10 {
        fill: #e54630;
      }

      .cls-11 {
        fill: #ff5e43;
      }

      .cls-12 {
        fill: #f2aaa0;
      }

      .cls-13 {
        fill: #8799b2;
      }

      .cls-14 {
        fill: #c3533c;
      }

      .cls-15, .cls-16 {
        fill: #e08270;
      }

      .cls-17 {
        fill: #4c6355;
      }

      .cls-18 {
        fill: #b8c9e8;
      }

      .cls-16 {
        opacity: .3;
      }

      .cls-19 {
        fill: #5dace2;
      }

      .cls-20 {
        fill: #ffe3c3;
      }
    </style>
  </defs>
  <path class="cls-16" d="m63.35,410.49S208.36-13,685.94,136.61c477.58,149.62,302.75,859.32-249.29,752.4C-115.38,782.08,63.35,410.49,63.35,410.49Z"/>
  <g>
    <path class="cls-6" d="m891.98,201.44s149.72,333.33-180.79,592.27"/>
    <path class="cls-3" d="m830.51,105.65s-50.67,140.11,73.43,179.57l22.45-4.59s52.99-136.49-95.88-174.98Z"/>
    <path class="cls-3" d="m929.14,372.87s6.31-125.94,123.57-131.87c0,0,22.98,132.31-118.45,168.52l-5.12-36.65Z"/>
    <path class="cls-3" d="m791.5,311.41s-17.48,69.72,127.39,102.3l7.13-33.97s-56.85-85.38-134.51-68.32Z"/>
    <path class="cls-3" d="m907.46,530.65s-23.8-91.84,184.29-42.49c0,0-33.82,152.32-200.24,100.23l15.95-57.75Z"/>
    <path class="cls-3" d="m816.68,688.97s126.86-85.59,218.01,23.93c0,0-111.72,118.66-249.86,7.73l31.85-31.66Z"/>
    <path class="cls-3" d="m776.53,418.89s-46.12,77.94,104.29,158.71l20.91-38.38s-31.45-118.12-125.2-120.33Z"/>
    <path class="cls-3" d="m788.01,692.91s-106.32-50.61-69.38-153.82c0,0,122.31,27.64,102.81,162.55l-33.44-8.73Z"/>
  </g>
  <g>
    <path class="cls-20" d="m568.86,376.81v294.84c0,18.02-13.06,32.62-29.16,32.62H77.67c-16.1,0-29.16-14.6-29.16-32.62v-294.84c0-1.57.1-3.14.3-4.69,2.03-15.79,26.53-24.79,41.21-24.79l449.67-3.13c14.68,0,26.83,12.13,28.86,27.92.2,1.56.3,3.12.3,4.69h0Z"/>
    <path class="cls-3" d="m631.19,376.81v294.84c0,18.02-14.62,32.62-32.65,32.62h-92.59v-351.7h92.59c16.44,0,23.54,3.71,32.32,19.54.23,1.55.34,3.12.34,4.69h0Z"/>
    <path class="cls-17" d="m630.85,372.12H48.85c2.33-16.03,16.09-27.92,32.31-27.92h517.37c16.22,0,29.98,11.89,32.32,27.92h0Z"/>
    <path class="cls-8" d="m80.77,349.31h11c1.99,0,3.61,1.62,3.61,3.61v10.98c0,1.99-1.62,3.61-3.61,3.61h-11c-1.99,0-3.61-1.62-3.61-3.61v-10.98c0-1.99,1.62-3.61,3.61-3.61Z"/>
    <g>
      <path class="cls-20" d="m128.64,361.68h-17.09c-1.81,0-3.27-1.46-3.27-3.27s1.46-3.27,3.27-3.27h17.09c1.81,0,3.27,1.46,3.27,3.27s-1.46,3.27-3.27,3.27Z"/>
      <path class="cls-20" d="m176.3,361.68h-31.54c-1.81,0-3.27-1.46-3.27-3.27s1.46-3.27,3.27-3.27h31.54c1.81,0,3.27,1.46,3.27,3.27s-1.46,3.27-3.27,3.27Z"/>
      <path class="cls-20" d="m221.06,361.68h-28.65c-1.81,0-3.27-1.46-3.27-3.27s1.46-3.27,3.27-3.27h28.65c1.81,0,3.27,1.46,3.27,3.27s-1.46,3.27-3.27,3.27Z"/>
      <path class="cls-20" d="m257.15,361.68h-19.98c-1.81,0-3.27-1.46-3.27-3.27s1.46-3.27,3.27-3.27h19.98c1.81,0,3.27,1.46,3.27,3.27s-1.46,3.27-3.27,3.27Z"/>
      <path class="cls-20" d="m286.02,361.68h-12.76c-1.81,0-3.27-1.46-3.27-3.27s1.46-3.27,3.27-3.27h12.76c1.81,0,3.27,1.46,3.27,3.27s-1.46,3.27-3.27,3.27Z"/>
    </g>
    <path class="cls-8" d="m594.72,372.78h-242.85c-.36,0-.65-.29-.65-.65s.29-.65.65-.65h242.85c.36,0,.65.29.65.65s-.29.65-.65.65h0Z"/>
    <path class="cls-8" d="m505.94,475.86c-.36,0-.65-.29-.65-.65v-103.08c0-.36.29-.65.65-.65s.65.29.65.65v103.08c0,.36-.29.65-.65.65Z"/>
  </g>
  <g>
    <path class="cls-5" d="m273.35,834.02l33.28-78.89-28.07-37.42-51.54,122.15c-6.49,15.37.72,33.08,16.1,39.57,3.72,1.57,7.71,2.37,11.74,2.37h146.76l-30.49-40.65h-93.06c-2.84,0-5.14-2.3-5.14-5.14,0-.69.14-1.36.4-2h0Z"/>
    <path class="cls-13" d="m390.97,867.57l-19.82-26.42h-93.06c-2.84,0-5.14-2.3-5.14-5.14,0-.69.14-1.36.4-2l33.28-78.89-18.46-24.61-46.81,110.96c-4.04,9.57.45,20.59,10.02,24.62,2.31.97,4.8,1.48,7.31,1.48h132.28Z"/>
    <path class="cls-7" d="m298.99,841.15l10.01,40.65h63.86l-21.18-40.65h-52.7Z"/>
    <path class="cls-7" d="m272.95,730.94c.71,1.41,15.64,66.95,15.64,66.95l13.18-31.01-28.82-35.94Z"/>
    <path class="cls-13" d="m900.23,884.01v-22.8l-14.26-5-102.92-174.83c-7.95-13.33-22.33-21.5-37.85-21.5h-419.11l-82.3-28.86v44.69h.03c-.23,3.43.6,6.84,2.37,9.77l114.8,195.02c7.95,13.33,22.33,21.5,37.85,21.5h484.44c9.37,0,16.97-7.6,16.97-16.96,0-.34-.01-.68-.03-1.03Z"/>
    <path class="cls-20" d="m875.46,869.87l-8.05-4.95-13.43,12.11h-388.6l-27.06-7.16-20.85-.13c-15.52,0-30.24-.87-38.18-14.21l-128.36-215.34c-1.34-2.22-2.15-4.72-2.36-7.31-.75-9.34,23.56-11.66,33.96-11.66l445.61-.35c14.24,0,26.93.6,35.16,12.02.75,1.03,1.45,2.1,2.11,3.2l128.36,215.34c6.73,11.28-5.18,18.44-18.33,18.44h0Z"/>
    <path class="cls-5" d="m883.29,877.03h-29.31l-156.42-262.44h34.08c14.16,0,27.47,6.8,35.74,18.29.75,1.03,1.45,2.1,2.11,3.2l128.36,215.34c4.79,8.03,2.16,18.43-5.88,23.21-2.63,1.56-5.63,2.39-8.68,2.39h0Z"/>
    <path class="cls-13" d="m767.38,632.88H243.84c-.74-9.34,6.24-17.5,15.58-18.24.44-.03.89-.05,1.33-.05h470.89c14.16,0,27.47,6.8,35.74,18.29Z"/>
    <path class="cls-5" d="m468.26,877.4l-55.86-.37c-15.53,0-29.91-8.17-37.85-21.5l-128.36-215.34c-4.79-8.03-2.16-18.43,5.88-23.21,2.62-1.56,5.62-2.39,8.67-2.39h50.85l156.66,262.81Z"/>
    <ellipse class="cls-11" cx="287.58" cy="635.71" rx="8.83" ry="12.53" transform="translate(-384.39 447.89) rotate(-50.04)"/>
    <path class="cls-2" d="m327.13,673.22l-1.29-.13c-2.3-3.03-5.9-4.82-9.71-4.82h-22.22c-1.16,0-2.27.47-3.07,1.32l-1.15-.11v2.83c0,.13,0,.27,0,.41v.11h0c.05.68.26,1.33.62,1.9,2.23,3.57,6.14,5.74,10.35,5.74h22.22c2.29,0,4.16-1.82,4.22-4.11h0v-3.13Z"/>
    <path class="cls-20" d="m322.9,677.41h-22.22c-4.21,0-8.12-2.17-10.35-5.74-1.23-1.98-.63-4.58,1.35-5.81.67-.42,1.44-.64,2.23-.64h22.22c4.21,0,8.12,2.17,10.35,5.74,1.23,1.98.63,4.58-1.35,5.81-.67.42-1.44.64-2.23.64h0Z"/>
    <path class="cls-2" d="m342.34,698.92l-1.29-.13c-2.3-3.03-5.9-4.82-9.71-4.82h-22.22c-1.16,0-2.27.47-3.07,1.32l-1.15-.12v2.83c0,.14,0,.27,0,.41v.11h0c.05.67.27,1.33.62,1.9,2.23,3.57,6.14,5.74,10.35,5.74h22.22c2.29,0,4.16-1.82,4.22-4.11h0v-3.14Z"/>
    <path class="cls-20" d="m338.11,703.12h-22.22c-4.21,0-8.12-2.17-10.35-5.74-1.23-1.98-.63-4.58,1.35-5.81.67-.42,1.44-.64,2.23-.64h22.22c4.21,0,8.12,2.17,10.35,5.74,1.23,1.98.63,4.58-1.35,5.81-.67.42-1.45.64-2.24.64Z"/>
    <path class="cls-2" d="m357.55,724.63l-1.29-.13c-2.3-3.03-5.9-4.82-9.71-4.82h-22.22c-1.16,0-2.27.47-3.07,1.32l-1.15-.12v2.83c0,.13,0,.27,0,.41v.11h0c.05.68.27,1.33.62,1.9,2.23,3.57,6.14,5.74,10.35,5.74h22.22c2.29,0,4.16-1.82,4.22-4.11h0v-3.13Z"/>
    <path class="cls-20" d="m353.32,728.83h-22.22c-4.21,0-8.12-2.17-10.35-5.74-1.23-1.98-.63-4.58,1.35-5.81.67-.42,1.44-.64,2.23-.64h22.22c4.21,0,8.12,2.17,10.35,5.74,1.23,1.98.63,4.58-1.35,5.81-.67.42-1.45.64-2.24.64h0Z"/>
    <path class="cls-10" d="m372.76,750.33l-1.29-.13c-2.31-3.03-5.9-4.82-9.71-4.82h-22.22c-1.16,0-2.27.47-3.07,1.32l-1.15-.11v2.83c0,.13,0,.27,0,.41v.11h0c.05.67.27,1.33.62,1.9,2.23,3.57,6.14,5.74,10.35,5.74h22.22c2.29,0,4.16-1.82,4.22-4.11h0v-3.13Z"/>
    <path class="cls-11" d="m368.53,754.53h-22.22c-4.21,0-8.12-2.17-10.35-5.74-1.23-1.98-.63-4.58,1.35-5.81.67-.42,1.44-.64,2.23-.64h22.22c4.21,0,8.12,2.17,10.35,5.74,1.23,1.98.63,4.58-1.35,5.81-.67.42-1.45.64-2.24.64Z"/>
    <g>
      <path class="cls-5" d="m515.19,640.3c46.16,1.9,66,77.05,47.05,77.57-18.96.53-88.09-79.27-47.05-77.57Z"/>
      <path class="cls-5" d="m627.6,686.96c40.77,29.27-26.85,53.69-45.62,45.91-18.77-7.78,4.86-75.18,45.62-45.91Z"/>
      <path class="cls-5" d="m666.09,761.99c13.99,40.08-70.61-6.49-76.58-15.43-5.97-8.95,62.59-24.65,76.58,15.43Z"/>
      <path class="cls-5" d="m591.58,757.34c20.95,6.77,63.46,69.49,36.42,73.85-27.04,4.36-57.37-80.62-36.42-73.85Z"/>
      <path class="cls-5" d="m567.91,746.54c10.59,10.84,1.42,85.68-31.3,68.24-41.51-22.13,17.52-82.36,31.3-68.24Z"/>
      <path class="cls-5" d="m462.28,703.02c-6.07-29.39,96.16,18.27,98.51,31.14,2.34,12.88-92.43-1.76-98.51-31.14Z"/>
      <path class="cls-3" d="m564.14,735.41s-1.98-15.95,18.64-10.32c20.62,5.64,26.5,32.37,3.83,28.34-22.67-4.03-22.47-18.03-22.47-18.03Z"/>
    </g>
    <circle class="cls-8" cx="460.31" cy="697.89" r="6.3"/>
    <path class="cls-8" d="m417.37,734.4c-.18,0-.33-.15-.33-.33,0-.1.04-.19.12-.25l42.94-36.18c.13-.12.34-.11.46.02.12.13.11.34-.02.46,0,0-.01.01-.02.02l-42.94,36.18c-.06.05-.13.08-.21.08h0Z"/>
    <path class="cls-1" d="m411.5,731.15h7.06c.75,0,1.36.61,1.36,1.36v7.06c0,.75-.61,1.35-1.35,1.35h-7.06c-.75,0-1.36-.61-1.36-1.36v-7.05c0-.75.61-1.35,1.35-1.35Z" transform="translate(-376 438.93) rotate(-40)"/>
  </g>
  <g>
    <path class="cls-17" d="m101.19,394.61h18.95c2.36,0,4.27,1.95,4.27,4.36v201.44c0,2.41-1.91,4.36-4.27,4.36h-18.95c-2.36,0-4.27-1.95-4.27-4.36v-201.44c0-2.41,1.91-4.36,4.27-4.36Z"/>
    <g>
      <path class="cls-8" d="m121.53,576.96h-21.64c-.18,0-.32-.15-.32-.33s.14-.33.32-.33h21.64c.18,0,.32.15.32.33s-.14.33-.32.33Z"/>
      <path class="cls-8" d="m121.53,548.81h-21.64c-.18,0-.32-.15-.32-.33s.14-.33.32-.33h21.64c.18,0,.32.15.32.33s-.14.33-.32.33Z"/>
      <path class="cls-8" d="m121.53,520.67h-21.64c-.18,0-.32-.15-.32-.33s.14-.33.32-.33h21.64c.18,0,.32.15.32.33s-.14.33-.32.33Z"/>
      <path class="cls-8" d="m121.53,492.53h-21.64c-.18,0-.32-.15-.32-.33s.14-.33.32-.33h21.64c.18,0,.32.15.32.33s-.14.33-.32.33Z"/>
      <path class="cls-8" d="m121.53,464.39h-21.64c-.18,0-.32-.15-.32-.33s.14-.33.32-.33h21.64c.18,0,.32.15.32.33s-.14.33-.32.33Z"/>
      <path class="cls-8" d="m121.53,436.25h-21.64c-.18,0-.32-.15-.32-.33s.14-.33.32-.33h21.64c.18,0,.32.15.32.33s-.14.33-.32.33Z"/>
      <path class="cls-8" d="m121.53,408.11h-21.64c-.18,0-.32-.15-.32-.33s.14-.33.32-.33h21.64c.18,0,.32.15.32.33s-.14.33-.32.33Z"/>
    </g>
    <ellipse class="cls-20" cx="110.66" cy="401.62" rx="1.95" ry="1.99"/>
    <ellipse class="cls-20" cx="117.8" cy="401.62" rx="1.95" ry="1.99"/>
    <ellipse class="cls-20" cx="103.52" cy="401.62" rx="1.95" ry="1.99"/>
  </g>
  <g>
    <path class="cls-1" d="m525.78,483.65h16.32v16.34h-16.32v-16.34Z"/>
    <path class="cls-12" d="m548.06,483.65h16.32v16.34h-16.32v-16.34Z"/>
    <path class="cls-15" d="m570.34,483.65h16.32v16.34h-16.32v-16.34Z"/>
    <path class="cls-14" d="m592.61,483.65h16.32v16.34h-16.32v-16.34Z"/>
    <path class="cls-9" d="m525.78,506.59h16.32v16.34h-16.32v-16.34Z"/>
    <path class="cls-18" d="m548.06,506.59h16.32v16.34h-16.32v-16.34Z"/>
    <path class="cls-5" d="m570.34,506.59h16.32v16.34h-16.32v-16.34Z"/>
    <path class="cls-13" d="m592.61,506.59h16.32v16.34h-16.32v-16.34Z"/>
  </g>
  <g>
    <path class="cls-11" d="m610.73,552.43h-85.45c-2.62,0-4.74-2.11-4.74-4.71,0-2.6,2.12-4.71,4.74-4.71h85.45c2.62,0,4.74,2.11,4.74,4.71,0,2.6-2.12,4.71-4.74,4.71Z"/>
    <path class="cls-1" d="m610.73,571.73h-85.45c-2.62,0-4.74-2.11-4.74-4.71,0-2.6,2.12-4.71,4.74-4.71h85.45c2.62,0,4.74,2.11,4.74,4.71,0,2.6-2.12,4.71-4.74,4.71Z"/>
    <path class="cls-8" d="m610.73,591.02h-85.45c-2.62-.03-4.72-2.17-4.69-4.77.03-2.56,2.11-4.63,4.69-4.66h85.45c2.62.03,4.72,2.17,4.69,4.77-.03,2.56-2.11,4.63-4.69,4.66Z"/>
    <g>
      <path class="cls-20" d="m576.68,547.8l4.94-8.5h-9.87l4.94,8.5Z"/>
      <path class="cls-20" d="m543.06,567.01l4.94-8.5h-9.87l4.94,8.5Z"/>
      <path class="cls-20" d="m598.9,586.31l4.94-8.5h-9.87l4.94,8.5Z"/>
    </g>
  </g>
  <g>
    <path class="cls-19" d="m539.04,399.03l22.58,25.76-34.52,2.79,36.14,1.89-24.2,26.66,27.27-23.76,1.34,35.57,2.49-35.31,25.83,23.21-23.01-26.19,34.66-2.06-33.47-2.28,21.82-25.98-26,22.91-2.32-34.82-2.11,33.72-26.5-22.1Z"/>
    <path class="cls-1" d="m567.65,427.58v40.17c-.1,0-.2,0-.29,0-10.61.01-20.79-4.17-28.32-11.62l28.61-28.55Z"/>
    <path class="cls-12" d="m527.09,427.58h40.56l-28.61,28.55c-7.66-7.53-11.96-17.82-11.95-28.55Z"/>
    <path class="cls-15" d="m539.04,399.03l28.61,28.55h-40.56c-.01-10.73,4.29-21.02,11.95-28.55Z"/>
    <path class="cls-14" d="m567.36,387.41c.1,0,.2,0,.29,0v40.17l-28.61-28.55c7.53-7.46,17.71-11.64,28.32-11.62Z"/>
    <path class="cls-13" d="m567.65,387.42c10.65.06,20.84,4.35,28.32,11.91l-28.32,28.25v-40.17Z"/>
    <path class="cls-5" d="m595.97,399.33c7.47,7.51,11.66,17.67,11.65,28.25h-39.97l28.32-28.25Z"/>
    <path class="cls-18" d="m567.65,427.58h39.97c.01,10.58-4.18,20.74-11.65,28.25l-28.32-28.25Z"/>
    <path class="cls-9" d="m567.65,427.58l28.32,28.25c-7.48,7.57-17.67,11.85-28.32,11.91v-40.17Z"/>
  </g>
  <g>
    <path class="cls-15" d="m661.23,633.13l-12.3-26.94-150.04,68.41c-1.61.72-2.52,2.45-2.2,4.19,1.53,7.89,4.92,15.31,9.9,21.63,1.1,1.4,3.01,1.86,4.63,1.11l150.01-68.4Z"/>
    <path class="cls-15" d="m509.32,701.14l-36.72,5.88-4.67.75c-.14.02-.28.03-.42.03-1.45,0-2.62-1.18-2.61-2.62,0-.77.34-1.51.94-2l3.62-3.03,28.53-23.88,11.34,24.87Z"/>
    <path class="cls-14" d="m566.3,676.42l-55.09,25.12c-1.61.75-3.53.29-4.63-1.11-4.98-6.32-8.37-13.74-9.9-21.63-.32-1.74.59-3.46,2.2-4.19l55.12-25.13c1.35,10.21,5.59,19.13,12.3,26.95h0Z"/>
    <ellipse class="cls-10" cx="655.08" cy="619.66" rx="7.3" ry="14.81" transform="translate(-198.16 327.96) rotate(-24.53)"/>
    <path class="cls-11" d="m652.65,612.18c-.9,4.01,2.5,11.01,5.95,13.04l14.01-4.81c4.33-1.49,6.64-6.21,5.15-10.54-.07-.19-.14-.38-.22-.56-1.8-4.21-6.67-6.17-10.89-4.38-.19.08-.38.17-.57.27l-13.43,6.98Z"/>
    <path class="cls-11" d="m472.6,707.02l-4.67.75c-.14.02-.28.03-.42.03-1.45,0-2.62-1.18-2.61-2.62,0-.77.34-1.51.94-2l3.62-3.03c-.65,2.8.85,5.43,3.15,6.88Z"/>
  </g>
  <g>
    <path class="cls-5" d="m280.03,383.76c50.75,6.46,26.49,89.55,4.83,88.31-21.66-1.24-49.96-94.05-4.83-88.31Z"/>
    <path class="cls-5" d="m377.57,444.9c27.71,35.52-63.49,55.45-79.78,45.25-16.29-10.19,52.07-80.77,79.78-45.25Z"/>
    <path class="cls-5" d="m374.35,529.64c-9.1,44.64-75.41-13.74-76.59-23.98-1.17-10.24,85.69-20.66,76.59,23.98Z"/>
    <path class="cls-5" d="m293.41,517.51c19.37,9.32,28.31,81.13-4.81,83.27-33.12,2.13-14.56-92.58,4.81-83.27Z"/>
    <path class="cls-5" d="m273.48,503.58c5.19,12.73-51.52,92.72-77.52,70.75-32.99-27.87,70.76-87.32,77.52-70.75Z"/>
    <path class="cls-5" d="m181.63,446.49c11.39-32.33,96.86,28.91,91.51,43.05-5.35,14.14-102.9-10.71-91.51-43.05Z"/>
    <path class="cls-4" d="m276.14,491.19s7.67-17.43,27.37-9.37c19.7,8.06,9.74,37.5-13.27,30.99-23.01-6.51-14.1-21.62-14.1-21.62Z"/>
  </g>
  <path class="cls-8" d="m135.44,479.58c-.36,0-.65-.29-.65-.65,0-.21.1-.4.27-.53l98.95-72.49c.29-.21.7-.15.91.14.21.29.15.7-.14.91l-98.95,72.49c-.11.08-.25.13-.39.13h0Z"/>
  <ellipse class="cls-8" cx="183.64" cy="443.46" rx="6.71" ry="6.71"/>
  <path class="cls-1" d="m126.71,478.88l6.07-4.44c.64-.47,1.55-.33,2.02.31l4.45,6.06c.47.64.33,1.55-.31,2.02l-6.07,4.44c-.64.47-1.55.33-2.02-.31l-4.45-6.06c-.47-.64-.33-1.55.31-2.02Z"/>
  <path class="cls-1" d="m229.43,403.63l6.07-4.44c.64-.47,1.55-.33,2.02.31l4.45,6.06c.47.64.33,1.55-.31,2.02l-6.07,4.44c-.64.47-1.55.33-2.02-.31l-4.45-6.06c-.47-.64-.33-1.55.31-2.02Z"/>
  <g>
    <path class="cls-14" d="m880.76,196.28c43.26,1.82,28.74,73.62,10.39,74.12-18.35.5-48.86-75.74-10.39-74.12Z"/>
    <path class="cls-14" d="m967.38,240.86c25.91,27.97-49.58,51.3-64.05,43.87-14.47-7.43,38.14-71.84,64.05-43.87Z"/>
    <path class="cls-14" d="m970.72,312.55c-4.49,38.3-64.58-6.2-66.3-14.75-1.72-8.55,70.79-23.55,66.3,14.75Z"/>
    <path class="cls-14" d="m901.6,308.11c17,6.47,29.68,66.4,1.9,70.56-27.78,4.17-18.9-77.03-1.9-70.56Z"/>
    <path class="cls-14" d="m883.8,297.79c5.29,10.36-36.82,81.87-60.31,65.21-29.81-21.14,53.43-78.69,60.31-65.21Z"/>
    <path class="cls-14" d="m802.26,256.21c7.29-28.08,83.75,17.46,80.25,29.76-3.5,12.3-87.54-1.68-80.25-29.76Z"/>
    <path class="cls-15" d="m885.15,287.15s5.22-15.24,22.41-9.86c17.19,5.39,10.9,30.93-8.97,27.08-19.87-3.85-13.44-17.22-13.44-17.22Z"/>
  </g>
</svg>